<svg width="674" height="674" xmlns="http://www.w3.org/2000/svg" xmlns:xlink="http://www.w3.org/1999/xlink" xml:space="preserve" overflow="hidden"><g transform="translate(-276 -23)"><path d="M847.496 176.812 844.786 176.812C844.399 155.767 834.288 136.087 817.405 123.517L816.976 123.194 816.52 122.906C805.324 115.547 792.237 111.585 778.839 111.498 771.796 111.453 764.788 112.497 758.064 114.594 744.729 88.9357 718.177 72.8772 689.26 72.9813 683.435 73.1124 677.632 73.7348 671.912 74.8418L671.498 74.912 671.055 75.0103C635.88 83.0648 610.875 114.272 610.683 150.358 610.683 150.737 610.683 151.53 610.683 151.53 607.579 150.998 604.431 150.762 601.282 150.828 580.633 150.871 561.233 160.725 549.019 177.374 534.567 196.909 531.692 222.69 541.486 244.929L541.647 245.301 541.83 245.673C552.631 266.932 573.772 280.985 597.554 282.715L598.158 282.771 846.731 282.771C875.68 282.47 899.393 259.688 900.854 230.775L900.854 230.494 900.854 230.213C900.858 200.735 876.974 176.832 847.496 176.812ZM846.618 268.729 598.783 268.729C579.887 267.381 563.064 256.273 554.404 239.424 546.607 221.8 548.844 201.35 560.266 185.827 569.854 172.742 585.075 164.977 601.296 164.898 604.168 164.903 607.037 165.102 609.883 165.495L624.626 168.233C624.664 168.241 624.702 168.216 624.709 168.178 624.71 168.173 624.711 168.168 624.711 168.163L624.711 151.481C624.391 121.544 644.945 95.4171 674.116 88.6799 679.086 87.7112 684.128 87.1523 689.19 87.0089 713.329 86.893 735.425 100.54 746.129 122.176L751.128 132.167C751.152 132.189 751.188 132.189 751.212 132.167L762.038 128.004C767.456 126.292 773.109 125.444 778.79 125.49 789.516 125.581 799.986 128.781 808.93 134.701 822.476 144.764 830.535 160.584 830.709 177.458L830.709 190.798C830.709 190.837 830.741 190.868 830.779 190.868L847.454 190.868C869.168 190.845 886.789 208.429 886.812 230.143 886.812 230.166 886.812 230.19 886.812 230.213 885.783 251.695 868.125 268.615 846.618 268.729Z" fill="#50164A"/><path d="M627.042 338.938 360.25 338.938C344.74 338.938 332.167 351.511 332.167 367.021L332.167 542.542C332.167 558.051 344.74 570.625 360.25 570.625L465.562 570.625 465.562 612.75 423.438 612.75 423.438 626.792 563.854 626.792 563.854 612.75 521.729 612.75 521.729 570.625 627.042 570.625C642.551 570.625 655.125 558.051 655.125 542.542L655.125 367.021C655.125 351.511 642.551 338.938 627.042 338.938ZM507.688 612.75 479.604 612.75 479.604 570.625 507.688 570.625ZM641.083 542.542C641.083 550.297 634.797 556.583 627.042 556.583L360.25 556.583C352.495 556.583 346.208 550.297 346.208 542.542L346.208 367.021C346.208 359.266 352.495 352.979 360.25 352.979L627.042 352.979C634.797 352.979 641.083 359.266 641.083 367.021Z" fill="#50164A"/><path d="M360.25 542.542 627.042 542.542 627.042 367.021 360.25 367.021ZM374.292 381.062 613 381.062 613 528.5 374.292 528.5Z" fill="#50164A"/><path d="M409.101 307.99C405.01 298.86 402.742 289.02 402.424 279.022 402.031 234.955 437.434 198.914 481.5 198.521 481.973 198.517 482.445 198.517 482.918 198.521L483.55 198.521C483.641 198.521 483.662 198.577 483.599 198.64L446.557 235.682 456.485 245.61 503.573 198.521 456.485 151.432 446.557 161.36 470.133 184.936C470.189 184.992 470.133 185.048 470.091 185.055 419.672 190.627 383.317 236.016 388.889 286.434 389.931 295.856 392.424 305.06 396.281 313.719Z" fill="#50164A"/><path d="M781.795 320.74C785.886 329.869 788.154 339.709 788.472 349.707 788.865 393.774 753.462 429.815 709.395 430.208 708.923 430.213 708.45 430.213 707.978 430.208L707.346 430.208C707.255 430.208 707.234 430.152 707.297 430.089L744.339 393.047 734.411 383.12 687.323 430.208 734.411 477.297 744.339 467.37 720.763 443.794C720.707 443.737 720.763 443.681 720.805 443.674 771.224 438.103 807.579 392.713 802.006 342.295 800.965 332.873 798.472 323.669 794.615 315.01Z" fill="#50164A"/></g></svg>